<svg width="35" height="35" viewBox="0 0 35 35" fill="none" xmlns="http://www.w3.org/2000/svg">
<path d="M26.25 19.2208V14.5833C26.2479 12.517 25.5146 10.5182 24.18 8.9407C22.8455 7.36323 20.9957 6.30895 18.9583 5.96457V4.37499C18.9583 3.98822 18.8047 3.61728 18.5312 3.34379C18.2577 3.0703 17.8868 2.91666 17.5 2.91666C17.1132 2.91666 16.7423 3.0703 16.4688 3.34379C16.1953 3.61728 16.0416 3.98822 16.0416 4.37499V5.96457C14.0043 6.30895 12.1545 7.36323 10.8199 8.9407C9.48534 10.5182 8.75207 12.517 8.74998 14.5833V19.2208C7.89897 19.5217 7.16185 20.0784 6.63968 20.8147C6.11751 21.5509 5.83585 22.4307 5.83331 23.3333V26.25C5.83331 26.6368 5.98696 27.0077 6.26045 27.2812C6.53394 27.5547 6.90487 27.7083 7.29165 27.7083H11.8708C12.2066 28.9441 12.9398 30.035 13.9571 30.8127C14.9744 31.5905 16.2194 32.0119 17.5 32.0119C18.7805 32.0119 20.0255 31.5905 21.0429 30.8127C22.0602 30.035 22.7933 28.9441 23.1291 27.7083H27.7083C28.0951 27.7083 28.466 27.5547 28.7395 27.2812C29.013 27.0077 29.1666 26.6368 29.1666 26.25V23.3333C29.1641 22.4307 28.8824 21.5509 28.3603 20.8147C27.8381 20.0784 27.101 19.5217 26.25 19.2208V19.2208ZM11.6666 14.5833C11.6666 13.0362 12.2812 11.5525 13.3752 10.4585C14.4692 9.36457 15.9529 8.74999 17.5 8.74999C19.0471 8.74999 20.5308 9.36457 21.6248 10.4585C22.7187 11.5525 23.3333 13.0362 23.3333 14.5833V18.9583H11.6666V14.5833ZM17.5 29.1667C16.991 29.1636 16.4916 29.0274 16.0516 28.7715C15.6116 28.5157 15.2461 28.1491 14.9916 27.7083H20.0083C19.7538 28.1491 19.3884 28.5157 18.9484 28.7715C18.5083 29.0274 18.009 29.1636 17.5 29.1667ZM26.25 24.7917H8.74998V23.3333C8.74998 22.9465 8.90363 22.5756 9.17712 22.3021C9.45061 22.0286 9.82154 21.875 10.2083 21.875H24.7916C25.1784 21.875 25.5494 22.0286 25.8228 22.3021C26.0963 22.5756 26.25 22.9465 26.25 23.3333V24.7917Z" fill="#A3A3A3"/>
</svg>
