<svg width="25" height="25" viewBox="0 0 25 25" fill="none" xmlns="http://www.w3.org/2000/svg">
<path d="M12.4998 0.0012207C5.60778 0.0012207 0 5.60621 0 12.5C0 19.391 5.60778 24.9988 12.4998 24.9988C19.3926 24.9988 25 19.391 25 12.5C25 5.60621 19.3926 0.0012207 12.4998 0.0012207ZM12.4998 22.2141C7.14261 22.2141 2.78474 17.8564 2.78474 12.5C2.78474 7.14132 7.14261 2.78372 12.4998 2.78372C17.8575 2.78372 22.2154 7.14138 22.2154 12.5C22.2153 17.8564 17.8575 22.2141 12.4998 22.2141Z" fill="#A3A3A3"/>
<path d="M16.6026 14.7642C15.8041 16.1344 14.3192 16.9844 12.7277 16.9844C10.2561 16.9844 8.24285 14.9717 8.24285 12.5C8.24285 10.0263 10.2561 8.01288 12.7277 8.01288C14.3193 8.01288 15.8041 8.86602 16.6026 10.2336L16.7058 10.4123H19.7183L19.5375 9.92727C19.0133 8.53851 18.0935 7.35772 16.8759 6.51493C15.6552 5.66995 14.2214 5.22168 12.7277 5.22168C8.715 5.22168 5.45178 8.48769 5.45178 12.5C5.45178 16.5126 8.715 19.7756 12.7277 19.7756C14.2214 19.7756 15.6551 19.3288 16.8759 18.4825C18.0935 17.6395 19.0133 16.4592 19.5375 15.0704L19.7183 14.5851H16.7058L16.6026 14.7642Z" fill="#A3A3A3"/>
</svg>
