<svg width="31" height="31" viewBox="0 0 31 31" fill="none" xmlns="http://www.w3.org/2000/svg">
<path d="M28.0563 25.9854C28.9702 24.7603 29.5974 23.3457 29.8915 21.8458C30.1857 20.346 30.1392 18.7992 29.7557 17.3197C29.3722 15.8401 28.6613 14.4656 27.6756 13.2975C26.6899 12.1295 25.4544 11.1976 24.0604 10.5708C23.7568 8.82388 23.059 7.16914 22.02 5.73232C20.981 4.2955 19.6281 3.1144 18.0642 2.27878C16.5004 1.44316 14.7666 0.974991 12.9947 0.909853C11.2227 0.844716 9.45927 1.18432 7.83826 1.90287C6.21725 2.62141 4.78135 3.69999 3.63966 5.05665C2.49797 6.4133 1.68053 8.01235 1.24945 9.73227C0.818373 11.4522 0.784999 13.2478 1.15186 14.9825C1.51873 16.7173 2.27618 18.3456 3.36667 19.7437L1.33959 21.7562C1.13723 21.9613 1.00015 22.2217 0.945649 22.5046C0.891145 22.7875 0.921657 23.0802 1.03334 23.3458C1.14274 23.6121 1.32853 23.8401 1.56729 24.001C1.80605 24.1619 2.08709 24.2485 2.375 24.25H10.6729C11.4993 25.9921 12.8021 27.4646 14.4307 28.4969C16.0592 29.5293 17.9468 30.0793 19.875 30.0833H28.625C28.9129 30.0819 29.194 29.9953 29.4327 29.8344C29.6715 29.6734 29.8573 29.4455 29.9667 29.1792C30.0783 28.9136 30.1089 28.6209 30.0544 28.338C29.9999 28.0551 29.8628 27.7946 29.6604 27.5896L28.0563 25.9854ZM9.66667 19.875C9.66867 20.3633 9.70767 20.8509 9.78334 21.3333H5.88959L6.4 20.8375C6.53669 20.7019 6.64518 20.5406 6.71922 20.3629C6.79326 20.1852 6.83138 19.9946 6.83138 19.8021C6.83138 19.6096 6.79326 19.4189 6.71922 19.2412C6.64518 19.0635 6.53669 18.9022 6.4 18.7667C5.58269 17.9583 4.93474 16.9951 4.49404 15.9334C4.05333 14.8717 3.82872 13.7328 3.83334 12.5833C3.83334 10.2627 4.75521 8.03708 6.39615 6.39614C8.03709 4.75519 10.2627 3.83332 12.5833 3.83332C14.3941 3.82244 16.1628 4.3793 17.6407 5.42562C19.1187 6.47194 20.2315 7.95512 20.8229 9.66665C20.5021 9.66665 20.1958 9.66665 19.875 9.66665C17.1676 9.66665 14.5711 10.7422 12.6566 12.6566C10.7422 14.571 9.66667 17.1676 9.66667 19.875ZM25.0375 27.1667L25.1104 27.2396H19.875C18.1882 27.2366 16.5546 26.6488 15.2526 25.5765C13.9505 24.5041 13.0605 23.0135 12.7341 21.3586C12.4078 19.7037 12.6653 17.9868 13.4628 16.5004C14.2603 15.0141 15.5485 13.8502 17.1079 13.207C18.6673 12.5639 20.4014 12.4813 22.0149 12.9733C23.6283 13.4653 25.0213 14.5015 25.9565 15.9053C26.8916 17.3092 27.3112 18.9938 27.1436 20.6723C26.9761 22.3507 26.2318 23.9192 25.0375 25.1104C24.7627 25.3797 24.6055 25.7466 24.6 26.1312C24.6008 26.3242 24.6399 26.5151 24.715 26.6928C24.7901 26.8705 24.8997 27.0316 25.0375 27.1667V27.1667Z" fill="#A3A3A3"/>
</svg>
