<svg width="34" height="34" viewBox="0 0 34 34" fill="none" xmlns="http://www.w3.org/2000/svg">
<path d="M33.1834 30.8167L27 24.6833C29.4002 21.6907 30.5625 17.8922 30.248 14.0688C29.9336 10.2455 28.1661 6.68797 25.3092 4.12774C22.4523 1.56751 18.723 0.199184 14.8882 0.304118C11.0534 0.409052 7.40456 1.97927 4.69193 4.6919C1.97929 7.40454 0.409075 11.0534 0.304141 14.8882C0.199207 18.723 1.56753 22.4523 4.12776 25.3092C6.68799 28.1661 10.2455 29.9335 14.0689 30.248C17.8922 30.5625 21.6907 29.4002 24.6834 27L30.8167 33.1333C30.9716 33.2896 31.156 33.4135 31.3591 33.4982C31.5622 33.5828 31.78 33.6263 32 33.6263C32.22 33.6263 32.4379 33.5828 32.641 33.4982C32.8441 33.4135 33.0284 33.2896 33.1834 33.1333C33.4838 32.8226 33.6517 32.4072 33.6517 31.975C33.6517 31.5428 33.4838 31.1274 33.1834 30.8167V30.8167ZM15.3334 27C13.0259 27 10.7703 26.3158 8.8517 25.0338C6.93313 23.7519 5.43778 21.9298 4.55476 19.798C3.67174 17.6662 3.4407 15.3204 3.89086 13.0573C4.34102 10.7942 5.45217 8.71537 7.08378 7.08376C8.71539 5.45214 10.7942 4.341 13.0573 3.89084C15.3204 3.44068 17.6662 3.67172 19.798 4.55474C21.9298 5.43776 23.7519 6.93311 25.0338 8.85168C26.3158 10.7703 27 13.0259 27 15.3333C27 18.4275 25.7709 21.395 23.5829 23.5829C21.395 25.7708 18.4275 27 15.3334 27V27Z" fill="#E7E4F8"/>
</svg>
