<svg xmlns="http://www.w3.org/2000/svg" fill="none" viewBox="0.67 0.83 36.62 28.33">
<path d="M19.5 15.3667C20.3893 14.5969 21.1026 13.6448 21.5915 12.575C22.0804 11.5053 22.3334 10.3428 22.3334 9.16667C22.3334 6.95653 21.4554 4.83691 19.8926 3.27411C18.3298 1.71131 16.2102 0.833333 14 0.833333C11.7899 0.833333 9.67027 1.71131 8.10746 3.27411C6.54466 4.83691 5.66669 6.95653 5.66669 9.16667C5.66667 10.3428 5.91969 11.5053 6.40856 12.575C6.89744 13.6448 7.61072 14.5969 8.50002 15.3667C6.16692 16.4231 4.18746 18.1292 2.79832 20.2809C1.40918 22.4326 0.66914 24.9389 0.666687 27.5C0.666687 27.942 0.842282 28.366 1.15484 28.6785C1.4674 28.9911 1.89133 29.1667 2.33335 29.1667C2.77538 29.1667 3.1993 28.9911 3.51186 28.6785C3.82443 28.366 4.00002 27.942 4.00002 27.5C4.00002 24.8478 5.05359 22.3043 6.92895 20.4289C8.80432 18.5536 11.3479 17.5 14 17.5C16.6522 17.5 19.1957 18.5536 21.0711 20.4289C22.9465 22.3043 24 24.8478 24 27.5C24 27.942 24.1756 28.366 24.4882 28.6785C24.8007 28.9911 25.2247 29.1667 25.6667 29.1667C26.1087 29.1667 26.5326 28.9911 26.8452 28.6785C27.1578 28.366 27.3334 27.942 27.3334 27.5C27.3309 24.9389 26.5909 22.4326 25.2017 20.2809C23.8126 18.1292 21.8331 16.4231 19.5 15.3667ZM14 14.1667C13.0111 14.1667 12.0444 13.8734 11.2222 13.324C10.3999 12.7746 9.75906 11.9937 9.38062 11.0801C9.00218 10.1665 8.90317 9.16112 9.09609 8.19122C9.28902 7.22131 9.76522 6.3304 10.4645 5.63113C11.1637 4.93187 12.0547 4.45567 13.0246 4.26274C13.9945 4.06981 14.9998 4.16883 15.9134 4.54727C16.8271 4.92571 17.608 5.56657 18.1574 6.38882C18.7068 7.21106 19 8.17776 19 9.16667C19 10.4928 18.4732 11.7645 17.5356 12.7022C16.5979 13.6399 15.3261 14.1667 14 14.1667ZM30.2334 14.7C31.3 13.4989 31.9967 12.0151 32.2397 10.4272C32.4827 8.83937 32.2616 7.21512 31.603 5.75C30.9444 4.28488 29.8763 3.04133 28.5275 2.16904C27.1786 1.29675 25.6064 0.832904 24 0.833333C23.558 0.833333 23.1341 1.00893 22.8215 1.32149C22.5089 1.63405 22.3334 2.05797 22.3334 2.5C22.3334 2.94203 22.5089 3.36595 22.8215 3.67851C23.1341 3.99107 23.558 4.16667 24 4.16667C25.3261 4.16667 26.5979 4.69345 27.5356 5.63113C28.4732 6.56882 29 7.84058 29 9.16667C28.9977 10.0421 28.7655 10.9015 28.3268 11.659C27.8881 12.4166 27.2581 13.0456 26.5 13.4833C26.2529 13.6259 26.0465 13.8294 25.9006 14.0746C25.7547 14.3197 25.6742 14.5982 25.6667 14.8833C25.6597 15.1663 25.7249 15.4463 25.8561 15.6971C25.9873 15.9479 26.1803 16.1611 26.4167 16.3167L27.0667 16.75L27.2834 16.8667C29.2923 17.8195 30.9872 19.3267 32.1683 21.2105C33.3494 23.0944 33.9676 25.2766 33.95 27.5C33.95 27.942 34.1256 28.366 34.4382 28.6785C34.7507 28.9911 35.1747 29.1667 35.6167 29.1667C36.0587 29.1667 36.4826 28.9911 36.7952 28.6785C37.1078 28.366 37.2834 27.942 37.2834 27.5C37.297 24.9424 36.6564 22.4238 35.4225 20.1834C34.1885 17.9431 32.4023 16.0555 30.2334 14.7Z" fill="#E7E4F8"/>
</svg>