<svg xmlns="http://www.w3.org/2000/svg" fill="none" viewBox="0.8 0 37.6 28">
<path d="M30.4533 18.4006C30.4445 18.4004 30.4356 18.4002 30.4268 18.4C31.5169 18.4036 31.5411 18.4248 30.4533 18.4006ZM30.4 18.4C34.7336 18.4 38.2623 21.8457 38.3961 26.1468C38.3987 26.2309 38.4 27.9153 38.4 28C38.4 28 36.56 27.9782 36 28C36.0031 27.8969 36.0029 26.1934 35.9995 26.0898C35.9152 23.5393 33.8594 20.8769 30.4 20.8C30.1131 20.7936 29.8365 20.8076 29.5701 20.8399C29.5069 20.0297 29.3428 19.2478 29.0907 18.5066C29.5165 18.4365 29.954 18.4 30.4 18.4ZM8.79999 16.8C9.72577 16.8 10.6148 16.9573 11.4419 17.2465C11.0807 17.9545 10.805 18.7135 10.6282 19.5096C10.0732 19.3242 9.46231 19.2147 8.79999 19.2C5.331 19.1229 3.34767 22.0172 3.20791 24.5185C3.20264 24.6129 3.19999 27.9068 3.19999 28H0.799988L0.800056 27.8394C0.800389 27.1631 0.801944 24.6037 0.804704 24.5227C0.95083 20.2328 4.47452 16.8 8.79999 16.8ZM20.0268 13.6C21.0277 13.6033 21.13 13.6214 20.2981 13.6057C24.5113 13.7598 27.8927 17.1722 27.9975 21.3979C27.9992 21.4651 28 28 28 28H25.6L25.6001 27.8176C25.6004 26.7622 25.6024 21.4827 25.6022 21.4323C25.5914 18.8395 23.5239 16.0783 20 16C16.4881 15.922 14.4989 18.8891 14.4036 21.411C14.4012 21.4743 14.4 28 14.4 28H12L12.0001 27.6015C12.0003 26.1791 12.0014 21.4328 12.0033 21.367C12.1266 17.0565 15.6597 13.6 20 13.6L20.0433 13.6003L20.04 13.6003C20.0356 13.6002 20.0312 13.6001 20.0268 13.6ZM9.62677 16.8C10.7169 16.8036 10.7411 16.8248 9.65331 16.8006C9.64446 16.8004 9.63561 16.8002 9.62677 16.8ZM31.28 7.2C33.931 7.2 36.08 9.34903 36.08 12C36.08 14.651 33.931 16.8 31.28 16.8C28.629 16.8 26.48 14.651 26.48 12C26.48 9.34903 28.629 7.2 31.28 7.2ZM8.79999 5.6C11.451 5.6 13.6 7.74903 13.6 10.4C13.6 13.051 11.451 15.2 8.79999 15.2C6.14902 15.2 3.99999 13.051 3.99999 10.4C3.99999 7.74903 6.14902 5.6 8.79999 5.6ZM31.28 9.2C29.7336 9.2 28.48 10.4536 28.48 12C28.48 13.5464 29.7336 14.8 31.28 14.8C32.8264 14.8 34.08 13.5464 34.08 12C34.08 10.4536 32.8264 9.2 31.28 9.2ZM8.79999 7.6C7.25359 7.6 5.99999 8.8536 5.99999 10.4C5.99999 11.9464 7.25359 13.2 8.79999 13.2C10.3464 13.2 11.6 11.9464 11.6 10.4C11.6 8.8536 10.3464 7.6 8.79999 7.6ZM20 0C23.3137 0 26 2.68629 26 6C26 9.31371 23.3137 12 20 12C16.6863 12 14 9.31371 14 6C14 2.68629 16.6863 0 20 0ZM20 2C17.7908 2 16 3.79086 16 6C16 8.20914 17.7908 10 20 10C22.2091 10 24 8.20914 24 6C24 3.79086 22.2091 2 20 2Z" fill="#E7E4F8"/>
</svg>