<svg xmlns="http://www.w3.org/2000/svg" fill="none" viewBox="3.33 6.67 33.33 26.67">
<path d="M31.6666 6.66667H8.33331C7.00723 6.66667 5.73546 7.19346 4.79778 8.13114C3.8601 9.06882 3.33331 10.3406 3.33331 11.6667V28.3333C3.33331 29.6594 3.8601 30.9312 4.79778 31.8689C5.73546 32.8066 7.00723 33.3333 8.33331 33.3333H31.6666C32.9927 33.3333 34.2645 32.8066 35.2022 31.8689C36.1399 30.9312 36.6666 29.6594 36.6666 28.3333V11.6667C36.6666 10.3406 36.1399 9.06882 35.2022 8.13114C34.2645 7.19346 32.9927 6.66667 31.6666 6.66667ZM8.33331 10H31.6666C32.1087 10 32.5326 10.1756 32.8452 10.4882C33.1577 10.8007 33.3333 11.2246 33.3333 11.6667L20 19.8L6.66665 11.6667C6.66665 11.2246 6.84224 10.8007 7.1548 10.4882C7.46736 10.1756 7.89129 10 8.33331 10ZM33.3333 28.3333C33.3333 28.7754 33.1577 29.1993 32.8452 29.5119C32.5326 29.8244 32.1087 30 31.6666 30H8.33331C7.89129 30 7.46736 29.8244 7.1548 29.5119C6.84224 29.1993 6.66665 28.7754 6.66665 28.3333V15.4667L19.1333 23.0833C19.3867 23.2296 19.6741 23.3066 19.9666 23.3066C20.2592 23.3066 20.5466 23.2296 20.8 23.0833L33.3333 15.4667V28.3333Z" fill="#E7E4F8"/>
</svg>