<svg xmlns="http://www.w3.org/2000/svg" fill="none" viewBox="0.3 0.4 33.21 33.12">
<path d="M29.4 18.6667C29.0333 18.6667 28.65 18.55 28.2833 18.4667C27.5408 18.303 26.8111 18.0858 26.1 17.8167C25.3268 17.5354 24.4769 17.55 23.7138 17.8577C22.9508 18.1654 22.3285 18.7444 21.9667 19.4833L21.6 20.2333C19.9767 19.3303 18.485 18.2087 17.1667 16.9C15.8579 15.5817 14.7364 14.09 13.8333 12.4667L14.5333 12C15.2723 11.6382 15.8513 11.0159 16.159 10.2528C16.4667 9.48975 16.4813 8.63985 16.2 7.86666C15.9354 7.15403 15.7182 6.42466 15.55 5.68333C15.4667 5.31666 15.4 4.93333 15.35 4.55C15.1476 3.37603 14.5327 2.3129 13.616 1.55206C12.6993 0.791224 11.5411 0.382678 10.35 0.399996H5.34999C4.6317 0.393252 3.9204 0.541352 3.2645 0.834214C2.6086 1.12708 2.0235 1.55782 1.54904 2.09713C1.07457 2.63644 0.721876 3.27165 0.514965 3.95952C0.308054 4.64739 0.251784 5.37176 0.349985 6.08333C1.23788 13.0656 4.4267 19.5531 9.41274 24.5211C14.3988 29.489 20.8978 32.6542 27.8833 33.5167H28.5167C29.7457 33.5185 30.9323 33.0675 31.85 32.25C32.3773 31.7784 32.7985 31.2003 33.0858 30.5539C33.3731 29.9074 33.5199 29.2074 33.5167 28.5V23.5C33.4962 22.3423 33.0747 21.2276 32.3239 20.3461C31.5731 19.4646 30.5397 18.871 29.4 18.6667ZM30.2333 28.6667C30.233 28.9033 30.1823 29.1372 30.0846 29.3527C29.9869 29.5682 29.8444 29.7605 29.6667 29.9167C29.481 30.0783 29.2633 30.199 29.0278 30.2708C28.7923 30.3426 28.5443 30.3639 28.3 30.3333C22.0582 29.533 16.2604 26.6775 11.8212 22.2171C7.38198 17.7568 4.554 11.9456 3.78332 5.7C3.75679 5.45586 3.78004 5.20888 3.85165 4.97398C3.92327 4.73908 4.04177 4.52114 4.19999 4.33333C4.35617 4.15555 4.54842 4.01307 4.76395 3.91536C4.97948 3.81765 5.21334 3.76696 5.44999 3.76666H10.45C10.8376 3.75804 11.216 3.8848 11.5202 4.12511C11.8244 4.36543 12.0353 4.70428 12.1167 5.08333C12.1833 5.53889 12.2667 5.98889 12.3667 6.43333C12.5592 7.3119 12.8154 8.1753 13.1333 9.01666L10.8 10.1C10.6005 10.1915 10.421 10.3216 10.2719 10.4827C10.1228 10.6437 10.007 10.8327 9.9311 11.0387C9.85522 11.2446 9.82077 11.4635 9.82973 11.6829C9.83869 11.9022 9.89089 12.1176 9.98332 12.3167C12.382 17.4546 16.5121 21.5847 21.65 23.9833C22.0558 24.15 22.5109 24.15 22.9167 23.9833C23.1245 23.909 23.3155 23.7941 23.4786 23.6453C23.6417 23.4965 23.7736 23.3168 23.8667 23.1167L24.9 20.7833C25.7616 21.0915 26.641 21.3475 27.5333 21.55C27.9778 21.65 28.4278 21.7333 28.8833 21.8C29.2624 21.8813 29.6012 22.0922 29.8415 22.3964C30.0819 22.7006 30.2086 23.0791 30.2 23.4667L30.2333 28.6667Z" fill="#E7E4F8"/>
</svg>