<svg xmlns="http://www.w3.org/2000/svg" fill="none" viewBox="0.33 0.33 33.33 33.33">
<path d="M21.6833 17.4667C22.7383 16.3337 23.3326 14.848 23.35 13.3C23.35 11.6291 22.6862 10.0267 21.5048 8.84524C20.3233 7.66376 18.7208 7.00001 17.05 7.00001C15.3791 7.00001 13.7767 7.66376 12.5952 8.84524C11.4137 10.0267 10.75 11.6291 10.75 13.3C10.7674 14.848 11.3617 16.3337 12.4166 17.4667C10.9477 18.1981 9.68368 19.2832 8.73817 20.6244C7.79266 21.9656 7.19536 23.5207 6.99998 25.15C6.95136 25.592 7.08032 26.0353 7.3585 26.3822C7.63668 26.7292 8.04129 26.9514 8.48331 27C8.92534 27.0486 9.36858 26.9197 9.71552 26.6415C10.0625 26.3633 10.2847 25.9587 10.3333 25.5167C10.5322 23.9019 11.3147 22.4156 12.5335 21.3378C13.7522 20.2599 15.323 19.665 16.95 19.665C18.577 19.665 20.1478 20.2599 21.3665 21.3378C22.5852 22.4156 23.3678 23.9019 23.5666 25.5167C23.613 25.944 23.8227 26.337 24.1519 26.6134C24.4811 26.8898 24.9044 27.0283 25.3333 27H25.5166C25.9535 26.9497 26.3529 26.7288 26.6276 26.3854C26.9023 26.042 27.0302 25.6039 26.9833 25.1667C26.8024 23.546 26.224 21.9951 25.2993 20.6518C24.3747 19.3084 23.1326 18.2143 21.6833 17.4667ZM17 16.2667C16.4132 16.2667 15.8397 16.0927 15.3518 15.7667C14.8639 15.4407 14.4837 14.9774 14.2591 14.4353C14.0346 13.8932 13.9758 13.2967 14.0903 12.7212C14.2048 12.1458 14.4873 11.6172 14.9022 11.2023C15.3171 10.7874 15.8457 10.5048 16.4212 10.3903C16.9967 10.2759 17.5932 10.3346 18.1353 10.5592C18.6774 10.7837 19.1407 11.164 19.4667 11.6518C19.7927 12.1397 19.9666 12.7133 19.9666 13.3C19.9666 14.0868 19.6541 14.8414 19.0977 15.3978C18.5414 15.9541 17.7868 16.2667 17 16.2667ZM28.6666 0.333344H5.33331C4.00723 0.333344 2.73546 0.860128 1.79778 1.79781C0.860097 2.73549 0.333313 4.00726 0.333313 5.33334V28.6667C0.333313 29.9928 0.860097 31.2645 1.79778 32.2022C2.73546 33.1399 4.00723 33.6667 5.33331 33.6667H28.6666C29.9927 33.6667 31.2645 33.1399 32.2022 32.2022C33.1399 31.2645 33.6666 29.9928 33.6666 28.6667V5.33334C33.6666 4.00726 33.1399 2.73549 32.2022 1.79781C31.2645 0.860128 29.9927 0.333344 28.6666 0.333344ZM30.3333 28.6667C30.3333 29.1087 30.1577 29.5326 29.8452 29.8452C29.5326 30.1578 29.1087 30.3333 28.6666 30.3333H5.33331C4.89129 30.3333 4.46736 30.1578 4.1548 29.8452C3.84224 29.5326 3.66665 29.1087 3.66665 28.6667V5.33334C3.66665 4.89132 3.84224 4.46739 4.1548 4.15483C4.46736 3.84227 4.89129 3.66668 5.33331 3.66668H28.6666C29.1087 3.66668 29.5326 3.84227 29.8452 4.15483C30.1577 4.46739 30.3333 4.89132 30.3333 5.33334V28.6667Z" fill="#E7E4F8"/>
</svg>