<svg xmlns="http://www.w3.org/2000/svg" fill="none" viewBox="0.32 0.32 33.4 33.35">
<path d="M17 10.3333C15.6815 10.3333 14.3925 10.7243 13.2962 11.4569C12.1999 12.1894 11.3454 13.2306 10.8408 14.4488C10.3362 15.667 10.2042 17.0074 10.4614 18.3006C10.7187 19.5938 11.3536 20.7817 12.286 21.714C13.2183 22.6464 14.4062 23.2813 15.6994 23.5386C16.9926 23.7958 18.333 23.6638 19.5512 23.1592C20.7694 22.6546 21.8106 21.8001 22.5431 20.7038C23.2757 19.6075 23.6667 18.3185 23.6667 17C23.6667 15.2319 22.9643 13.5362 21.714 12.286C20.4638 11.0357 18.7681 10.3333 17 10.3333ZM17 20.3333C16.3407 20.3333 15.6963 20.1378 15.1481 19.7716C14.5999 19.4053 14.1727 18.8847 13.9204 18.2756C13.6681 17.6665 13.6021 16.9963 13.7307 16.3497C13.8593 15.7031 14.1768 15.1092 14.643 14.643C15.1092 14.1768 15.7031 13.8593 16.3497 13.7307C16.9963 13.6021 17.6665 13.6681 18.2756 13.9204C18.8847 14.1727 19.4053 14.5999 19.7716 15.1481C20.1378 15.6963 20.3333 16.3407 20.3333 17C20.3333 17.8841 19.9821 18.7319 19.357 19.357C18.7319 19.9821 17.8841 20.3333 17 20.3333ZM33.1833 15.8167L29.2667 12V6.4C29.2667 5.95797 29.0911 5.53405 28.7785 5.22149C28.466 4.90893 28.042 4.73333 27.6 4.73333H22.0833L18.1833 0.816667C18.0284 0.660453 17.8441 0.536462 17.641 0.451848C17.4379 0.367233 17.22 0.323669 17 0.323669C16.78 0.323669 16.5621 0.367233 16.359 0.451848C16.1559 0.536462 15.9716 0.660453 15.8167 0.816667L12 4.73333H6.4C5.95797 4.73333 5.53405 4.90893 5.22149 5.22149C4.90893 5.53405 4.73333 5.95797 4.73333 6.4V12L0.816667 15.8167C0.660453 15.9716 0.536462 16.1559 0.451848 16.359C0.367233 16.5621 0.323669 16.78 0.323669 17C0.323669 17.22 0.367233 17.4379 0.451848 17.641C0.536462 17.8441 0.660453 18.0284 0.816667 18.1833L4.73333 22.0833V27.6C4.73333 28.042 4.90893 28.466 5.22149 28.7785C5.53405 29.0911 5.95797 29.2667 6.4 29.2667H12L15.9 33.1833C16.0549 33.3395 16.2393 33.4635 16.4424 33.5482C16.6455 33.6328 16.8633 33.6763 17.0833 33.6763C17.3034 33.6763 17.5212 33.6328 17.7243 33.5482C17.9274 33.4635 18.1117 33.3395 18.2667 33.1833L22.1667 29.2667H27.6833C28.1254 29.2667 28.5493 29.0911 28.8618 28.7785C29.1744 28.466 29.35 28.042 29.35 27.6V22.0833L33.2667 18.1833C33.4176 18.023 33.5352 17.8343 33.6127 17.6282C33.6902 17.4221 33.7262 17.2027 33.7184 16.9826C33.7107 16.7626 33.6594 16.5462 33.5676 16.3461C33.4757 16.146 33.3451 15.966 33.1833 15.8167ZM26.4333 20.2167C26.2759 20.371 26.1506 20.5551 26.0647 20.7582C25.9789 20.9613 25.9343 21.1795 25.9333 21.4V25.9333H21.4C21.1795 25.9342 20.9613 25.9789 20.7582 26.0647C20.5551 26.1506 20.371 26.2759 20.2167 26.4333L17 29.65L13.7833 26.4333C13.629 26.2759 13.4449 26.1506 13.2418 26.0647C13.0387 25.9789 12.8205 25.9342 12.6 25.9333H8.06667V21.4C8.06575 21.1795 8.02109 20.9613 7.93526 20.7582C7.84943 20.5551 7.72415 20.371 7.56667 20.2167L4.35 17L7.56667 13.7833C7.72415 13.629 7.84943 13.4449 7.93526 13.2418C8.02109 13.0387 8.06575 12.8205 8.06667 12.6V8.06667H12.6C12.8205 8.06575 13.0387 8.02109 13.2418 7.93526C13.4449 7.84943 13.629 7.72415 13.7833 7.56667L17 4.35L20.2167 7.56667C20.371 7.72415 20.5551 7.84943 20.7582 7.93526C20.9613 8.02109 21.1795 8.06575 21.4 8.06667H25.9333V12.6C25.9343 12.8205 25.9789 13.0387 26.0647 13.2418C26.1506 13.4449 26.2759 13.629 26.4333 13.7833L29.65 17L26.4333 20.2167Z" fill="#E7E4F8"/>
</svg>