<svg xmlns="http://www.w3.org/2000/svg" fill="none" viewBox="0.99 0.75 30.03 32.47">
<path d="M30.7833 25.75L26.2666 17.95C27.1909 16.2525 27.6724 14.3495 27.6666 12.4167C27.6666 9.32247 26.4375 6.35501 24.2496 4.16709C22.0616 1.97916 19.0942 0.75 16 0.75C12.9058 0.75 9.93832 1.97916 7.7504 4.16709C5.56248 6.35501 4.33331 9.32247 4.33331 12.4167C4.32757 14.3495 4.80907 16.2525 5.73331 17.95L1.21665 25.75C1.07008 26.0039 0.993058 26.2919 0.993348 26.585C0.993638 26.8781 1.07123 27.166 1.2183 27.4195C1.36536 27.6731 1.5767 27.8834 1.83099 28.0292C2.08528 28.175 2.37352 28.2512 2.66665 28.25H7.44998L9.88331 32.35C9.96534 32.4859 10.0664 32.6094 10.1833 32.7167C10.4923 33.0145 10.9042 33.1816 11.3333 33.1833H11.5666C11.8183 33.1489 12.0587 33.0574 12.2695 32.9159C12.4804 32.7743 12.6561 32.5865 12.7833 32.3667L16 26.8333L19.2166 32.4167C19.3457 32.6334 19.5222 32.818 19.733 32.9566C19.9437 33.0951 20.1832 33.1841 20.4333 33.2167H20.6666C21.1015 33.2193 21.5202 33.0518 21.8333 32.75C21.9454 32.6488 22.041 32.5307 22.1166 32.4L24.55 28.3H29.3333C29.627 28.3012 29.9158 28.2247 30.1704 28.0784C30.425 27.932 30.6365 27.721 30.7833 27.4667C30.939 27.2074 31.0213 26.9107 31.0213 26.6083C31.0213 26.3059 30.939 26.0092 30.7833 25.75ZM11.3166 28.3L9.83331 25.8167C9.68725 25.5703 9.48016 25.3657 9.23202 25.2227C8.98387 25.0796 8.70305 25.0029 8.41665 25H5.53331L7.91665 20.8667C9.55785 22.4481 11.6263 23.5142 13.8666 23.9333L11.3166 28.3ZM16 20.75C14.3518 20.75 12.7406 20.2613 11.3702 19.3456C9.99982 18.4299 8.93171 17.1284 8.30098 15.6057C7.67025 14.083 7.50522 12.4074 7.82677 10.7909C8.14831 9.17441 8.94198 7.68955 10.1074 6.52411C11.2729 5.35867 12.7577 4.565 14.3742 4.24346C15.9907 3.92191 17.6663 4.08694 19.189 4.71767C20.7117 5.3484 22.0132 6.4165 22.9289 7.78691C23.8446 9.15732 24.3333 10.7685 24.3333 12.4167C24.3333 14.6268 23.4553 16.7464 21.8925 18.3092C20.3297 19.872 18.2101 20.75 16 20.75ZM23.5833 25C23.2969 25.0029 23.0161 25.0796 22.7679 25.2227C22.5198 25.3657 22.3127 25.5703 22.1666 25.8167L20.6833 28.3L18.15 23.8833C20.3824 23.4557 22.4433 22.3905 24.0833 20.8167L26.4666 24.95L23.5833 25Z" fill="#E7E4F8"/>
</svg>