<svg xmlns="http://www.w3.org/2000/svg" fill="none" viewBox="0.17 0.17 31.67 31.67">
<path d="M30.25 0.166672H1.75002C1.33009 0.166672 0.927367 0.333487 0.630435 0.630419C0.333502 0.927352 0.166687 1.33008 0.166687 1.75001V30.25C0.166687 30.6699 0.333502 31.0727 0.630435 31.3696C0.927367 31.6665 1.33009 31.8333 1.75002 31.8333H30.25C30.6699 31.8333 31.0727 31.6665 31.3696 31.3696C31.6665 31.0727 31.8334 30.6699 31.8334 30.25V1.75001C31.8334 1.33008 31.6665 0.927352 31.3696 0.630419C31.0727 0.333487 30.6699 0.166672 30.25 0.166672ZM28.6667 28.6667H3.33335V12.8333H28.6667V28.6667ZM28.6667 9.66667H3.33335V3.33334H28.6667V9.66667Z" fill="#E7E4F8"/>
</svg>