<svg xmlns="http://www.w3.org/2000/svg" fill="none" viewBox="0.11 0.17 41.73 41.67">
<path d="M21 13.3958C19.8097 12.7855 18.4579 12.5638 17.135 12.7619C15.812 12.9599 14.5844 13.5678 13.625 14.5C12.4546 15.6719 11.7972 17.2604 11.7972 18.9167C11.7972 20.5729 12.4546 22.1614 13.625 23.3333L19.5209 29.3333C19.7145 29.5286 19.945 29.6836 20.1988 29.7893C20.4527 29.8951 20.725 29.9496 21 29.9496C21.2751 29.9496 21.5474 29.8951 21.8012 29.7893C22.0551 29.6836 22.2855 29.5286 22.4792 29.3333L28.375 23.4375C29.5455 22.2656 30.2029 20.6771 30.2029 19.0208C30.2029 17.3646 29.5455 15.776 28.375 14.6042C27.4276 13.655 26.2058 13.0276 24.8824 12.8108C23.5589 12.5939 22.2008 12.7986 21 13.3958ZM25.4167 20.3958L21 24.8125L16.5834 20.3958C16.3881 20.2022 16.2331 19.9717 16.1273 19.7179C16.0216 19.464 15.9671 19.1917 15.9671 18.9167C15.9671 18.6416 16.0216 18.3693 16.1273 18.1155C16.2331 17.8616 16.3881 17.6312 16.5834 17.4375C16.9737 17.0495 17.5017 16.8317 18.0521 16.8317C18.6025 16.8317 19.1305 17.0495 19.5209 17.4375C19.7145 17.6328 19.945 17.7877 20.1988 17.8935C20.4527 17.9993 20.725 18.0537 21 18.0537C21.2751 18.0537 21.5474 17.9993 21.8012 17.8935C22.0551 17.7877 22.2855 17.6328 22.4792 17.4375C22.8695 17.0495 23.3976 16.8317 23.9479 16.8317C24.4983 16.8317 25.0264 17.0495 25.4167 17.4375C25.612 17.6312 25.767 17.8616 25.8727 18.1155C25.9785 18.3693 26.0329 18.6416 26.0329 18.9167C26.0329 19.1917 25.9785 19.464 25.8727 19.7179C25.767 19.9717 25.612 20.2022 25.4167 20.3958ZM21 0.166656C18.2642 0.166656 15.5551 0.705527 13.0275 1.7525C10.4998 2.79947 8.20319 4.33404 6.26864 6.2686C2.36163 10.1756 0.166693 15.4746 0.166693 21C0.14848 25.8107 1.81418 30.4761 4.87503 34.1875L0.70836 38.3542C0.419281 38.6471 0.223456 39.0191 0.145593 39.4233C0.06773 39.8274 0.111319 40.2456 0.270859 40.625C0.443897 40.9998 0.72441 41.3148 1.07679 41.53C1.42917 41.7451 1.83753 41.8507 2.25003 41.8333H21C26.5254 41.8333 31.8244 39.6384 35.7314 35.7314C39.6384 31.8244 41.8334 26.5253 41.8334 21C41.8334 15.4746 39.6384 10.1756 35.7314 6.2686C31.8244 2.36159 26.5254 0.166656 21 0.166656ZM21 37.6667H7.27086L9.20836 35.7292C9.59638 35.3388 9.81418 34.8108 9.81418 34.2604C9.81418 33.71 9.59638 33.182 9.20836 32.7917C6.48041 30.0667 4.78164 26.4803 4.40147 22.6433C4.02129 18.8063 4.98324 14.9563 7.12342 11.749C9.26359 8.54174 12.4496 6.17574 16.1386 5.0541C19.8276 3.93246 23.7914 4.12458 27.3546 5.59773C30.9179 7.07087 33.8601 9.7339 35.6801 13.1331C37.5001 16.5323 38.0852 20.4574 37.3357 24.2396C36.5862 28.0218 34.5486 31.4272 31.5699 33.8755C28.5912 36.3238 24.8558 37.6636 21 37.6667Z" fill="#E7E4F8"/>
</svg>