<svg width="30" height="29" viewBox="0 0 30 29" fill="none" xmlns="http://www.w3.org/2000/svg">
<path d="M28.7841 25.8987L23.5234 20.8387C25.5655 18.3698 26.5543 15.236 26.2868 12.0818C26.0192 8.92753 24.5155 5.99257 22.0849 3.88038C19.6543 1.76819 16.4815 0.639317 13.2189 0.725888C9.95637 0.812458 6.85198 2.10789 4.54413 4.34581C2.23627 6.58373 0.900357 9.59404 0.811081 12.7578C0.721805 15.9215 1.88595 18.9981 4.06415 21.3551C6.24234 23.712 9.26902 25.1702 12.5218 25.4296C15.7747 25.6891 19.0064 24.7301 21.5525 22.75L26.7706 27.81C26.9024 27.9389 27.0592 28.0412 27.232 28.111C27.4048 28.1808 27.5902 28.2167 27.7773 28.2167C27.9645 28.2167 28.1499 28.1808 28.3227 28.111C28.4955 28.0412 28.6523 27.9389 28.7841 27.81C29.0397 27.5536 29.1825 27.211 29.1825 26.8544C29.1825 26.4978 29.0397 26.1551 28.7841 25.8987ZM13.5977 22.75C11.6345 22.75 9.71547 22.1855 8.08319 21.1279C6.4509 20.0703 5.17869 18.5671 4.42743 16.8083C3.67617 15.0496 3.47961 13.1143 3.8626 11.2472C4.24558 9.38018 5.19092 7.66517 6.57907 6.31909C7.96721 4.97301 9.73582 4.05631 11.6612 3.68493C13.5866 3.31355 15.5824 3.50416 17.3961 4.23265C19.2098 4.96114 20.76 6.1948 21.8506 7.77763C22.9413 9.36045 23.5234 11.2213 23.5234 13.125C23.5234 15.6777 22.4777 18.1259 20.6162 19.9309C18.7548 21.7359 16.2301 22.75 13.5977 22.75Z" fill="#A3A3A3"/>
</svg>
